<svg width="28" height="19" viewBox="0 0 28 19" fill="none" xmlns="http://www.w3.org/2000/svg">
<g clip-path="url(#clip0_2025_608)">
<path d="M26.8066 0.896149H4.0332V18.5361H26.8066V0.896149Z" fill="#69B42E"/>
<path d="M0 0.716431V18.7164H28V0.716431H0ZM4.11044 18.4199V0.95964H26.6968V18.4199H4.11044V18.4199Z" fill="black"/>
<path d="M0.566895 16.7225C0.566895 15.5001 1.43152 15.2023 2.10057 15.2023C2.70443 15.2023 3.60791 15.4576 3.60791 16.7225V18.3812H0.566895V16.7225ZM2.84799 17.2235V16.9905C2.84799 16.7314 2.76962 16.4203 2.08345 16.4203C1.3795 16.4203 1.28402 16.7098 1.28402 16.9905V17.2235H2.84799Z" fill="white"/>
<path d="M1.3323 13.837H1.84923V13.8199C1.56212 13.7335 1.28027 13.4998 1.28027 13.1373C1.28027 13.0814 1.28883 13.0166 1.302 12.9601H2.2147C2.19692 13.0293 2.1798 13.1068 2.1798 13.1849C2.1798 13.5087 2.38855 13.7678 2.78366 13.7678H3.60878V14.8562H1.3323V13.837Z" fill="white"/>
<path d="M2.77246 13.0591V12.1174H3.61075V13.0591H2.77246Z" fill="white"/>
<path d="M2.51352 10.6715V10.6544L0.576172 10.1749V9.06493L2.51352 8.5982V8.58105L0.576172 8.21401V7.18149L3.60863 7.9073V9.15129L1.62716 9.65231V9.66946L3.60863 10.1444V11.4145L0.576172 12.1181V11.0341L2.51352 10.6715Z" fill="white"/>
<path d="M0.566895 4.39569H1.28402V5.87717H1.72259V4.46046H2.41798V5.87717H2.89145V4.36584H3.60857V7.03479H0.566895V4.39569Z" fill="white"/>
<path d="M0.566895 2.19283C0.566895 1.2473 1.07527 1.07395 1.35777 1.07395C1.70546 1.07395 1.98797 1.31144 2.05711 1.68737H2.07423C2.11769 1.3851 2.31788 1.00473 2.7953 1.00473C3.56445 1.00473 3.60791 1.86834 3.60791 2.25316V4.01087H0.566895V2.19283ZM1.77066 2.91421V2.64242C1.77066 2.24491 1.56191 2.20617 1.47498 2.20617C1.34921 2.20617 1.18392 2.29698 1.18392 2.61639V2.91421H1.77066ZM2.99154 2.91421V2.62083C2.99154 2.24935 2.7874 2.18839 2.67875 2.18839C2.37056 2.18839 2.37056 2.54717 2.37056 2.64623V2.91421H2.99154Z" fill="white"/>
<path d="M10.6345 8.80329L15.406 6.17816L20.1717 8.80456C20.1717 8.80456 20.8124 11.0703 18.2837 12.9683C15.7663 14.8575 15.057 14.8416 12.5145 12.9683C9.9654 11.09 10.6345 8.80329 10.6345 8.80329Z" fill="black"/>
<path d="M15.3848 5.17422L18.6747 6.95162C18.7563 6.73571 18.7992 6.51156 18.7992 6.27787C18.7992 4.88339 17.276 3.7518 15.3999 3.7518C13.5218 3.7518 12 4.88275 12 6.27787C12 6.50584 12.0415 6.72682 12.1166 6.93701L15.3848 5.17422Z" fill="black"/>
<path d="M21.1251 10.3184L23.7585 11.8513L18.8242 17.6363L21.1251 10.3184Z" fill="black"/>
<path d="M21.2636 8.84204L20.9673 7.57202L26.0398 9.01794L22.8941 10.6461L23.3267 9.32401L21.2636 8.84204Z" fill="black"/>
<path d="M20.672 6.75285L20.0029 5.85622L24.4993 4.46555L23.3804 7.88889L22.9175 6.31343L20.672 6.75285Z" fill="black"/>
<path d="M19.4347 5.16087L18.4898 4.19693L19.7291 2.97009L18.3726 2.15601H21.9713L19.4347 5.16087Z" fill="black"/>
<path d="M9.67343 10.3184L7.04004 11.8513L11.9743 17.6363L9.67343 10.3184Z" fill="black"/>
<path d="M9.53596 8.84204L9.83164 7.57202L4.75977 9.01794L7.90483 10.6461L7.47218 9.32401L9.53596 8.84204Z" fill="black"/>
<path d="M10.1264 6.75285L10.7955 5.85622L6.2998 4.46555L7.41862 7.88889L7.88155 6.31343L10.1264 6.75285Z" fill="black"/>
<path d="M11.3647 5.16087L12.309 4.19693L11.0697 2.97009L12.4262 2.15601H8.82812L11.3647 5.16087Z" fill="black"/>
<path d="M14.0009 12.1142H16.8068L17.0228 11.4811H13.7849L14.0009 12.1142ZM14.7384 14.272C15.1954 14.4111 15.6156 14.413 16.0699 14.2771L16.2214 13.8326H14.5883L14.7384 14.272ZM14.4026 13.2903H16.4064L16.6224 12.6572H14.1866L14.4026 13.2903ZM13.5992 10.9388H17.2079L17.4238 10.3057H13.3832L13.5992 10.9388ZM17.1394 7.13384L16.7482 8.809H16.7278L16.1048 7.11987H14.7476L14.1583 8.809H14.1365L13.6769 7.1313L12.5166 7.77012L13.1975 9.76342H14.7944L15.3956 8.03619H15.4174L16.0199 9.76342H17.6082L18.2885 7.76822L17.1394 7.13384Z" fill="white"/>
</g>
<defs>
<clipPath id="clip0_2025_608">
<rect width="28" height="18" fill="white" transform="translate(0 0.716431)"/>
</clipPath>
</defs>
</svg>
