<svg width="161" height="160" viewBox="0 0 161 160" fill="none" xmlns="http://www.w3.org/2000/svg">
<path d="M80.4886 156.571C40.7466 148.617 11.9286 111.293 11.9286 67.7976V28.2105C11.9286 26.6105 12.4542 25.0563 13.4141 23.7764C14.3739 22.4964 15.7451 21.5593 17.2991 21.125L76.2836 4.02854C79.026 3.22857 81.9512 3.22857 84.7164 4.02854L143.701 21.125C145.255 21.5822 146.603 22.4964 147.586 23.7764C148.546 25.0563 149.071 26.6105 149.071 28.2105V67.7976C149.049 111.316 120.231 148.663 80.4886 156.571Z" fill="#69B42E"/>
<path fill-rule="evenodd" clip-rule="evenodd" d="M80.3744 3.42902C78.9938 3.43971 77.6171 3.63955 76.2836 4.02854L17.2991 21.125C15.7451 21.5593 14.3739 22.4964 13.4141 23.7764C12.4542 25.0563 11.9286 26.6106 11.9286 28.2105V67.7976C11.9286 111.251 40.6914 148.546 80.3744 156.548V3.42902Z" fill="white" fill-opacity="0.15"/>
<path fill-rule="evenodd" clip-rule="evenodd" d="M62.2142 44.5035C62.2142 41.9787 64.2609 39.932 66.7857 39.932H94.2142C96.739 39.932 98.7857 41.9787 98.7857 44.5035V103.932C98.7857 106.457 96.739 108.503 94.2142 108.503H66.7857C64.2609 108.503 62.2142 106.457 62.2142 103.932V44.5035ZM82.5571 104.618C82.5571 105.754 81.6361 106.675 80.4999 106.675C79.3638 106.675 78.4428 105.754 78.4428 104.618C78.4428 103.482 79.3638 102.561 80.4999 102.561C81.6361 102.561 82.5571 103.482 82.5571 104.618ZM67.2172 42.2178H71.57V43.132C71.57 43.8895 72.184 44.5035 72.9415 44.5035H87.1129C87.8703 44.5035 88.4843 43.8895 88.4843 43.132V42.2178H93.7827C95.2834 42.2178 96.5 43.4343 96.5 44.935V98.9291C96.5 100.43 95.2834 101.646 93.7827 101.646H67.2172C65.7165 101.646 64.4999 100.43 64.4999 98.9291V44.935C64.4999 43.4343 65.7165 42.2178 67.2172 42.2178Z" fill="white"/>
<path fill-rule="evenodd" clip-rule="evenodd" d="M71.57 42.2178H67.2172C65.7165 42.2178 64.4999 43.4343 64.4999 44.935V98.9291C64.4999 100.43 65.7165 101.646 67.2172 101.646H93.7827C95.2834 101.646 96.5 100.43 96.5 98.9291V44.935C96.5 43.4343 95.2834 42.2178 93.7827 42.2178H88.4843V43.132C88.4843 43.8895 87.8703 44.5035 87.1129 44.5035H72.9415C72.184 44.5035 71.57 43.8895 71.57 43.132V42.2178Z" fill="white" fill-opacity="0.35"/>
</svg>
